<?xml version="1.0" encoding="UTF-8" standalone="no"?>
<svg
   xmlns:dc="http://purl.org/dc/elements/1.1/"
   xmlns:cc="http://creativecommons.org/ns#"
   xmlns:rdf="http://www.w3.org/1999/02/22-rdf-syntax-ns#"
   xmlns:svg="http://www.w3.org/2000/svg"
   xmlns="http://www.w3.org/2000/svg"
   width="5.71385mm"
   height="6.0510511mm"
   viewBox="0 0 5.71385 6.0510512"
   version="1.1"
   id="svg8">
  <defs
     id="defs2" />
  <metadata
     id="metadata5">
    <rdf:RDF>
      <cc:Work
         rdf:about="">
        <dc:format>image/svg+xml</dc:format>
        <dc:type
           rdf:resource="http://purl.org/dc/dcmitype/StillImage" />
        <dc:title></dc:title>
      </cc:Work>
    </rdf:RDF>
  </metadata>
  <g
     id="layer1"
     transform="translate(-85.45363,-98.477516)">
    <path
       style="opacity:1;fill:#ffffff;fill-opacity:1;stroke:none;stroke-width:0.27846131px;stroke-linecap:butt;stroke-linejoin:miter;stroke-opacity:1"
       d="m 88.00472,99.702015 -1.19058,0.909515 h -1.25585 c 0,0 -0.10465,0.62783 -0.10466,0.94464 -1e-5,0.31698 0.10466,0.94517 0.10466,0.94517 h 1.25585 l 1.19058,0.9095 c 0,0 0.12538,-1.23503 0.12537,-1.85467 -10e-6,-0.61946 -0.12537,-1.854155 -0.12537,-1.854155 z"
       id="path4529" />
    <path
       style="opacity:1;fill:none;stroke:#ffffff;stroke-width:0.449;stroke-linecap:round;stroke-linejoin:round;stroke-miterlimit:4;stroke-dasharray:none;stroke-opacity:1"
       d="m 89.30781,99.811595 c 0,0 0.27626,0.785225 0.27626,1.715205 0,0.92998 -0.27626,1.66772 -0.27626,1.66772"
       id="path4541" />
    <path
       id="path4558"
       d="m 90.27801,98.734255 c 0,0 0.63597,1.285355 0.63597,2.807665 0,1.52232 -0.63597,2.72995 -0.63597,2.72995"
       style="opacity:1;fill:none;stroke:#fffffc;stroke-width:0.50700003;stroke-linecap:round;stroke-linejoin:round;stroke-miterlimit:4;stroke-dasharray:none;stroke-opacity:1" />
    <path
       id="path4497"
       d="m 85.685269,98.877754 5.250571,5.250576"
       style="opacity:1;fill:#ffffff;fill-opacity:1;stroke:#fffff5;stroke-width:0.51848215;stroke-linecap:butt;stroke-linejoin:miter;stroke-miterlimit:4;stroke-dasharray:none;stroke-opacity:1" />
  </g>
</svg>
